<?xml version="1.0" standalone="no"?>
<!DOCTYPE svg PUBLIC "-//W3C//DTD SVG 20010904//EN"
 "http://www.w3.org/TR/2001/REC-SVG-20010904/DTD/svg10.dtd">
<svg version="1.0" xmlns="http://www.w3.org/2000/svg"
 width="397.000000pt" height="434.000000pt" viewBox="0 0 397.000000 434.000000"
 preserveAspectRatio="xMidYMid meet">

<g transform="translate(0.000000,434.000000) scale(0.100000,-0.100000)"
fill="#000000" stroke="none">
<path d="M1673 4089 c-82 -14 -202 -48 -274 -78 -145 -61 -317 -204 -354 -293
-19 -45 -21 -46 -72 -52 -152 -18 -353 -174 -399 -310 -29 -85 4 -182 81 -241
l40 -30 1 -75 c1 -53 9 -98 28 -153 14 -43 26 -84 26 -92 0 -18 -45 -20 -86
-4 -28 10 -28 10 -10 -10 17 -18 70 -38 90 -33 12 4 -2 -45 -22 -76 -9 -14
-54 -49 -99 -79 -102 -65 -106 -81 -36 -143 27 -23 63 -49 81 -58 45 -22 39
-48 -21 -86 -15 -10 -27 -25 -27 -33 0 -27 40 -72 74 -84 l34 -12 -24 -36
c-42 -62 -26 -105 50 -132 42 -15 40 -9 40 -118 l1 -84 45 -25 c42 -22 52 -24
140 -18 93 6 181 25 368 81 l94 27 39 -38 c122 -119 186 -443 145 -732 -18
-128 -74 -309 -132 -423 -68 -136 -124 -215 -263 -369 -37 -40 -34 -42 60 -65
86 -20 273 -20 352 1 136 35 213 89 467 324 154 143 197 177 275 216 76 37
194 64 283 64 l57 0 -68 45 c-235 158 -416 448 -458 734 -17 120 -7 338 20
421 35 109 111 205 256 325 205 169 283 282 334 485 27 105 38 313 22 421 -10
76 -43 187 -75 263 l-17 38 38 -6 c119 -21 223 -122 264 -257 18 -59 21 -87
16 -168 -6 -118 -26 -176 -152 -441 -125 -263 -154 -372 -135 -510 21 -155
120 -294 254 -361 66 -32 76 -34 175 -34 117 0 197 22 277 76 82 56 158 163
189 269 7 24 6 24 -24 -6 -86 -87 -226 -96 -312 -22 -39 35 -52 67 -51 128 0
63 24 124 80 208 65 96 181 296 222 384 21 46 51 124 66 173 26 82 28 104 28
250 0 176 -13 241 -75 390 -116 279 -367 455 -648 455 -163 0 -301 -47 -401
-136 -30 -27 -56 -52 -58 -56 -6 -14 -24 -9 -56 15 -95 72 -293 154 -435 181
-89 17 -242 19 -328 5z"/>
</g>
</svg>
